<?xml version="1.0" encoding="UTF-8" standalone="no"?><!DOCTYPE svg PUBLIC "-//W3C//DTD SVG 1.1//EN" "http://www.w3.org/Graphics/SVG/1.1/DTD/svg11.dtd"><svg width="100%" height="100%" viewBox="0 0 2134 2134" version="1.1" xmlns="http://www.w3.org/2000/svg" xmlns:xlink="http://www.w3.org/1999/xlink" xml:space="preserve" xmlns:serif="http://www.serif.com/" style="fill-rule:evenodd;clip-rule:evenodd;stroke-linejoin:round;stroke-miterlimit:2;"><path id="path2982" d="M933.249,2127.57c-162.173,-20.087 -319.285,-78.212 -454.54,-168.162c-210.043,-139.686 -362.922,-344.1 -434.838,-581.419c-16.756,-55.294 -33.758,-138.857 -39.735,-195.289c-5.515,-52.071 -5.515,-179.583 0,-231.655c44.759,-422.616 343.728,-783.55 751.42,-907.159c55.28,-16.761 138.821,-33.768 195.238,-39.746c52.058,-5.516 179.537,-5.516 231.595,0c246.612,26.132 475.546,138.384 651.154,319.277c120.798,124.433 206.217,268.821 255.769,432.339c30.779,101.57 44.021,195.16 44.021,311.117c0,87.152 -4.366,134.944 -19.218,210.348c-75.548,383.571 -361.321,698.891 -736.488,812.639c-55.28,16.761 -138.821,33.767 -195.238,39.746c-54.613,5.787 -195.262,4.637 -249.14,-2.036Zm-514.62,-356.553c25.749,-17.586 106.148,-55.784 185.092,-87.939c145.627,-59.315 195.434,-86.88 226.662,-125.445c27.663,-34.163 28.234,-36.732 28.757,-129.383l0.475,-84.202l-21.696,-28.587c-34.366,-45.281 -59.613,-101.295 -71.218,-158.007c-4.46,-21.794 -6.425,-24.809 -21.035,-32.264c-35.134,-17.929 -56.184,-66.583 -56.184,-129.861c-0,-39.1 0.417,-40.877 14.185,-60.43c14.076,-19.989 14.148,-20.323 9.199,-43.077c-35.854,-164.863 -35.564,-288.892 0.895,-381.693c50.18,-127.727 170.183,-194.331 350.747,-194.67c92.613,-0.173 144.269,15.949 183.346,57.223c12.977,13.706 20.821,18.264 35.419,20.583c10.314,1.638 32.326,9.508 48.918,17.489c59.866,28.796 101.397,88.401 115.922,166.373c15.616,83.824 4.946,206.626 -27.893,321.007c-4.558,15.879 -4.078,17.774 9.338,36.825c13.719,19.483 14.143,21.294 14.143,60.37c0,63.177 -21.054,111.934 -56.044,129.79c-15.158,7.735 -16.342,9.814 -23.107,40.6c-12.939,58.876 -46.515,129.76 -75.927,160.293l-14.747,15.308l1.785,84.725c1.766,83.819 1.912,84.959 13.719,106.652c25.7,47.218 74.012,80.678 179.594,124.382c138.048,57.142 190.435,80.797 224.936,101.566c23.717,14.278 38.225,20.575 43.527,18.891c10.605,-3.367 77.299,-77.613 114.766,-127.762c95.565,-127.912 158.392,-280.046 183.919,-445.356c10.321,-66.831 10.285,-208.664 -0.069,-275.091c-16.605,-106.535 -47.163,-204.018 -92.683,-295.668c-144.436,-290.807 -412.841,-485.594 -739.269,-536.501c-66.681,-10.399 -208.338,-10.399 -275.019,0c-106.508,16.61 -203.965,47.176 -295.592,92.708c-290.731,144.473 -485.467,412.949 -536.36,739.461c-10.396,66.699 -10.396,208.393 -0,275.091c32.608,209.202 120.853,389.325 265.971,542.89c16.789,17.768 33.339,32.291 36.777,32.275c3.438,-0.019 11.876,-3.871 18.751,-8.566Z" style="fill:#fff;fill-opacity:0.99;fill-rule:nonzero;"/></svg>